<svg width="24" height="24" viewBox="0 0 24 24" fill="none" xmlns="http://www.w3.org/2000/svg">
  <circle cx="12" cy="12" r="2.2" fill="black"/>
  <path d="M15.5 8.5c1.2 1 2 2.4 2 4s-.8 3-2 4" stroke="black" stroke-width="2.2" stroke-linecap="round" />
  <path d="M18.5 5.5c2 1.8 3.2 4.3 3.2 7s-1.2 5.2-3.2 7" stroke="black" stroke-width="2.2" stroke-linecap="round" />
  <path d="M21.5 2.5c2.8 2.5 4.5 6 4.5 9.5s-1.7 7-4.5 9.5" stroke="black" stroke-width="2.2" stroke-linecap="round" />
  <path d="M8.5 15.5c-1.2-1-2-2.4-2-4s.8-3 2-4" stroke="black" stroke-width="2.2" stroke-linecap="round" />
  <path d="M5.5 18.5c-2-1.8-3.2-4.3-3.2-7s1.2-5.2 3.2-7" stroke="black" stroke-width="2.2" stroke-linecap="round" />
  <path d="M2.5 21.5c-2.8-2.5-4.5-6-4.5-9.5s1.7-7 4.5-9.5" stroke="black" stroke-width="2.2" stroke-linecap="round" />
</svg>